<svg width="27" height="21" viewBox="0 0 27 21" fill="none" xmlns="http://www.w3.org/2000/svg">
<path d="M1.83333 3.20817C1.42014 3.20817 1.07403 3.06817 0.795 2.78817C0.515972 2.50817 0.375972 2.16206 0.375 1.74984C0.375 1.33664 0.515 0.990532 0.795 0.711504C1.075 0.432476 1.42111 0.292476 1.83333 0.291504H25.1667C25.5799 0.291504 25.9265 0.431504 26.2065 0.711504C26.4865 0.991504 26.626 1.33762 26.625 1.74984C26.625 2.16303 26.485 2.50963 26.205 2.78963C25.925 3.06963 25.5789 3.20914 25.1667 3.20817H1.83333ZM1.83333 20.7082C1.42014 20.7082 1.07403 20.5682 0.795 20.2882C0.515972 20.0082 0.375972 19.6621 0.375 19.2498C0.375 18.8366 0.515 18.4905 0.795 18.2115C1.075 17.9325 1.42111 17.7925 1.83333 17.7915H25.1667C25.5799 17.7915 25.9265 17.9315 26.2065 18.2115C26.4865 18.4915 26.626 18.8376 26.625 19.2498C26.625 19.663 26.485 20.0096 26.205 20.2896C25.925 20.5696 25.5789 20.7091 25.1667 20.7082H1.83333ZM1.83333 11.9582C1.42014 11.9582 1.07403 11.8182 0.795 11.5382C0.515972 11.2582 0.375972 10.9121 0.375 10.4998C0.375 10.0866 0.515 9.74053 0.795 9.46151C1.075 9.18248 1.42111 9.04248 1.83333 9.04151H25.1667C25.5799 9.04151 25.9265 9.18151 26.2065 9.46151C26.4865 9.74151 26.626 10.0876 26.625 10.4998C26.625 10.913 26.485 11.2596 26.205 11.5396C25.925 11.8196 25.5789 11.9591 25.1667 11.9582H1.83333Z" fill="black"/>
</svg>
