<svg width="52" height="52" viewBox="0 0 52 52" fill="none" xmlns="http://www.w3.org/2000/svg">
<path d="M50.9392 10.7976C50.7631 10.587 50.543 10.4176 50.2944 10.3014C50.0457 10.1852 49.7746 10.1249 49.5001 10.125H11.6906L10.2656 2.28984C10.1872 1.85781 9.95953 1.46703 9.62245 1.18563C9.28536 0.904234 8.86021 0.750063 8.42111 0.75H2.625C2.12772 0.75 1.65081 0.947544 1.29918 1.29917C0.947544 1.6508 0.75 2.12772 0.75 2.625C0.75 3.12228 0.947544 3.59919 1.29918 3.95082C1.65081 4.30245 2.12772 4.49999 2.625 4.49999H6.84376L12.8344 37.3804C13.0109 38.3556 13.4418 39.2668 14.0836 40.0218C13.1978 40.8492 12.5584 41.9058 12.2364 43.0743C11.9144 44.2429 11.9223 45.4778 12.2593 46.6422C12.5963 47.8065 13.2492 48.8548 14.1456 49.6707C15.0419 50.4867 16.1468 51.0384 17.3376 51.2648C18.5284 51.4911 19.7586 51.3832 20.8919 50.9531C22.0251 50.523 23.0171 49.7874 23.7578 48.8279C24.4985 47.8684 24.959 46.7225 25.0882 45.5173C25.2174 44.3121 25.0103 43.0946 24.4899 41.9999H35.1352C34.7157 42.8781 34.4987 43.8392 34.5001 44.8124C34.5001 46.1104 34.885 47.3792 35.6061 48.4584C36.3271 49.5376 37.3521 50.3787 38.5512 50.8754C39.7504 51.3721 41.0699 51.502 42.3429 51.2488C43.6159 50.9956 44.7852 50.3706 45.703 49.4528C46.6208 48.535 47.2458 47.3657 47.499 46.0927C47.7522 44.8197 47.6222 43.5002 47.1255 42.3011C46.6288 41.1019 45.7877 40.077 44.7085 39.3559C43.6293 38.6348 42.3605 38.2499 41.0626 38.2499H18.368C17.9289 38.2499 17.5037 38.0957 17.1667 37.8143C16.8296 37.5329 16.602 37.1421 16.5235 36.7101L15.7805 32.625H42.9681C44.2854 32.6248 45.5608 32.1623 46.5721 31.3181C47.5833 30.4739 48.2662 29.3015 48.5017 28.0054L51.3517 12.3351C51.3999 12.0643 51.388 11.7862 51.3167 11.5204C51.2454 11.2547 51.1165 11.008 50.9392 10.7976ZM21.375 44.8124C21.375 45.3687 21.2101 45.9125 20.901 46.375C20.592 46.8375 20.1528 47.198 19.6388 47.4108C19.1249 47.6237 18.5594 47.6794 18.0138 47.5709C17.4683 47.4624 16.9671 47.1945 16.5738 46.8012C16.1805 46.4078 15.9126 45.9067 15.8041 45.3611C15.6955 44.8156 15.7512 44.2501 15.9641 43.7361C16.177 43.2222 16.5375 42.783 17 42.4739C17.4625 42.1649 18.0063 41.9999 18.5625 41.9999C19.3085 41.9999 20.0238 42.2963 20.5513 42.8237C21.0787 43.3512 21.375 44.0665 21.375 44.8124ZM43.8751 44.8124C43.8751 45.3687 43.7101 45.9125 43.4011 46.375C43.092 46.8375 42.6528 47.198 42.1389 47.4108C41.625 47.6237 41.0595 47.6794 40.5139 47.5709C39.9683 47.4624 39.4672 47.1945 39.0738 46.8012C38.6805 46.4078 38.4126 45.9067 38.3041 45.3611C38.1956 44.8156 38.2513 44.2501 38.4642 43.7361C38.677 43.2222 39.0375 42.783 39.5 42.4739C39.9626 42.1649 40.5063 41.9999 41.0626 41.9999C41.8085 41.9999 42.5239 42.2963 43.0513 42.8237C43.5788 43.3512 43.8751 44.0665 43.8751 44.8124ZM44.8126 27.3351C44.7339 27.7683 44.5052 28.16 44.1667 28.4416C43.8282 28.7231 43.4013 28.8765 42.961 28.875H15.0985L12.3727 13.875H47.2524L44.8126 27.3351Z" fill="#FB8A00"/>
</svg>
