<svg width="40" height="40" viewBox="0 0 40 40" fill="none" xmlns="http://www.w3.org/2000/svg">
<rect x="0.5" y="0.5" width="39" height="39" rx="9.5" stroke="black"/>
<path fill-rule="evenodd" clip-rule="evenodd" d="M26.4125 8.39979C26.8387 7.89639 27.4466 7.5818 28.1037 7.52457C28.7607 7.46734 29.4138 7.6721 29.9206 8.09425C30.4274 8.51639 30.7468 9.12171 30.8093 9.77832C30.8718 10.4349 30.6723 11.0896 30.2542 11.5998L23.2542 19.9998L30.2542 28.3998C30.4674 28.6516 30.6287 28.9432 30.7286 29.2577C30.8286 29.5722 30.8654 29.9033 30.8367 30.2321C30.8081 30.5608 30.7147 30.8806 30.5618 31.1731C30.409 31.4655 30.1998 31.7248 29.9462 31.936C29.6927 32.1472 29.3998 32.3061 29.0845 32.4036C28.7693 32.5011 28.4378 32.5352 28.1093 32.5039C27.7808 32.4726 27.4618 32.3767 27.1705 32.2215C26.8793 32.0663 26.6217 31.855 26.4125 31.5998L20 23.9056L13.5875 31.6015C13.1631 32.1109 12.5536 32.4308 11.8933 32.4909C11.2329 32.551 10.5757 32.3463 10.0663 31.9219C9.55684 31.4974 9.23689 30.888 9.1768 30.2276C9.11671 29.5672 9.32141 28.9101 9.74586 28.4006L16.7459 20.0006L9.74586 11.6006C9.32778 11.0905 9.12825 10.4358 9.19073 9.77916C9.25321 9.12254 9.57264 8.51723 10.0794 8.09508C10.5862 7.67294 11.2393 7.46818 11.8964 7.52541C12.5535 7.58264 13.1613 7.89722 13.5875 8.40062L20 16.094L26.4125 8.39979ZM28.8667 9.35979C28.6969 9.2184 28.478 9.15021 28.2579 9.17022C28.0379 9.19022 27.8348 9.29677 27.6934 9.46646L20.64 17.9298C20.5618 18.0236 20.464 18.099 20.3534 18.1508C20.2428 18.2026 20.1221 18.2294 20 18.2294C19.8779 18.2294 19.7573 18.2026 19.6467 18.1508C19.5361 18.099 19.4382 18.0236 19.36 17.9298L12.3067 9.46646C12.2376 9.37941 12.1519 9.30706 12.0544 9.25365C11.957 9.20025 11.8498 9.16687 11.7393 9.15548C11.6288 9.14409 11.5171 9.15492 11.4108 9.18734C11.3045 9.21976 11.2058 9.27311 11.1204 9.34424C11.035 9.41538 10.9648 9.50287 10.9137 9.60156C10.8627 9.70026 10.8319 9.80817 10.8231 9.91894C10.8144 10.0297 10.8279 10.1411 10.8629 10.2466C10.8978 10.3521 10.9535 10.4495 11.0267 10.5331L18.4709 19.4665C18.5956 19.6162 18.6639 19.8049 18.6639 19.9998C18.6639 20.1947 18.5956 20.3834 18.4709 20.5331L11.0267 29.4665C10.9535 29.5501 10.8978 29.6475 10.8629 29.753C10.8279 29.8585 10.8144 29.9699 10.8231 30.0806C10.8319 30.1914 10.8627 30.2993 10.9137 30.398C10.9648 30.4967 11.035 30.5842 11.1204 30.6553C11.2058 30.7265 11.3045 30.7798 11.4108 30.8122C11.5171 30.8447 11.6288 30.8555 11.7393 30.8441C11.8498 30.8327 11.957 30.7993 12.0544 30.7459C12.1519 30.6925 12.2376 30.6202 12.3067 30.5331L19.36 22.0698C19.4382 21.976 19.5361 21.9006 19.6467 21.8488C19.7573 21.797 19.8779 21.7702 20 21.7702C20.1221 21.7702 20.2428 21.797 20.3534 21.8488C20.464 21.9006 20.5618 21.976 20.64 22.0698L27.6934 30.5331C27.8366 30.6969 28.0382 30.7981 28.2551 30.8152C28.472 30.8323 28.6869 30.7639 28.854 30.6246C29.0212 30.4853 29.1272 30.2862 29.1495 30.0698C29.1718 29.8534 29.1086 29.6369 28.9734 29.4665L21.5292 20.5331C21.4045 20.3834 21.3362 20.1947 21.3362 19.9998C21.3362 19.8049 21.4045 19.6162 21.5292 19.4665L28.9734 10.5331C29.1148 10.3634 29.1829 10.1444 29.1629 9.92437C29.1429 9.70435 29.0364 9.50128 28.8667 9.35979Z" fill="black"/>
</svg>
