<svg width="42" height="42" viewBox="0 0 42 42" fill="none" xmlns="http://www.w3.org/2000/svg">
<path d="M35.625 6.36456C32.7312 3.47205 29.0447 1.5026 25.0316 0.705242C21.0185 -0.0921162 16.8591 0.318432 13.0793 1.88497C9.29955 3.45151 6.06918 6.10369 3.79672 9.50612C1.52425 12.9086 0.311734 16.9084 0.3125 21C0.3125 26.4876 2.49174 31.7506 6.3711 35.6319C10.2505 39.5132 15.5124 41.6951 21 41.6979C23.7156 41.6991 26.4051 41.1682 28.9167 40.1354C31.4202 39.0786 33.6975 37.551 35.625 35.6354C37.5472 33.7136 39.0719 31.4319 40.1122 28.9208C41.1525 26.4096 41.6879 23.7181 41.6879 21C41.6879 18.2819 41.1525 15.5904 40.1122 13.0792C39.0719 10.568 37.5472 8.28639 35.625 6.36456ZM34.1667 34.1562C31.1876 37.148 27.2787 39.0364 23.0833 39.5104V25.8437H27C27.5525 25.8437 28.0824 25.6242 28.4731 25.2335C28.8638 24.8428 29.0833 24.3129 29.0833 23.7604C29.0833 23.2079 28.8638 22.678 28.4731 22.2873C28.0824 21.8966 27.5525 21.6771 27 21.6771H23.0833V15.9687C23.0833 15.4162 23.3028 14.8863 23.6935 14.4956C24.0842 14.1049 24.6141 13.8854 25.1667 13.8854H27.6667C28.2192 13.8854 28.7491 13.6659 29.1398 13.2752C29.5305 12.8845 29.75 12.3546 29.75 11.8021C29.75 11.2495 29.5305 10.7196 29.1398 10.3289C28.7491 9.93822 28.2192 9.71873 27.6667 9.71873H24.125C22.7437 9.71873 21.4189 10.2675 20.4422 11.2442C19.4654 12.221 18.9167 13.5457 18.9167 14.9271V21.6771H15.0208C14.4683 21.6771 13.9384 21.8966 13.5477 22.2873C13.157 22.678 12.9375 23.2079 12.9375 23.7604C12.9375 24.3129 13.157 24.8428 13.5477 25.2335C13.9384 25.6242 14.4683 25.8437 15.0208 25.8437H18.9167V39.5104C15.0477 39.069 11.4152 37.4232 8.53219 34.8055C5.64921 32.1879 3.66149 28.7306 2.84979 24.922C2.0381 21.1135 2.44345 17.1462 4.00861 13.5805C5.57376 10.0148 8.2196 7.03098 11.5724 5.05044C14.9252 3.06989 18.8155 2.19276 22.6938 2.54293C26.5721 2.8931 30.2424 4.45288 33.1862 7.00194C36.13 9.55101 38.1986 12.9605 39.0998 16.7489C40.0009 20.5373 39.6891 24.513 38.2083 28.1146C37.2652 30.3713 35.8926 32.4232 34.1667 34.1562Z" fill="#FB8A00"/>
</svg>
