<svg width="23" height="24" viewBox="0 0 23 24" fill="none" xmlns="http://www.w3.org/2000/svg">
<path d="M20.4444 0.0615234H2.55556C1.15 0.0615234 0 1.21152 0 2.61708V20.506C0 21.9128 1.15 23.0615 2.55556 23.0615H11.5V14.1171H8.94444V10.9546H11.5V8.33513C11.5 5.57002 13.0487 3.6278 16.3121 3.6278L18.6159 3.63036V6.95897H17.0864C15.8163 6.95897 15.3333 7.91219 15.3333 8.79641V10.9559H18.6147L17.8889 14.1171H15.3333V23.0615H20.4444C21.85 23.0615 23 21.9128 23 20.506V2.61708C23 1.21152 21.85 0.0615234 20.4444 0.0615234Z" fill="#D2D3D5"/>
</svg>
