<svg width="25" height="25" viewBox="0 0 25 25" fill="none" xmlns="http://www.w3.org/2000/svg">
<path fill-rule="evenodd" clip-rule="evenodd" d="M20.75 0.125C21.844 0.125 22.8932 0.559597 23.6668 1.33318C24.4404 2.10677 24.875 3.15598 24.875 4.25V20.75C24.875 21.844 24.4404 22.8932 23.6668 23.6668C22.8932 24.4404 21.844 24.875 20.75 24.875H4.25C3.15598 24.875 2.10677 24.4404 1.33318 23.6668C0.559597 22.8932 0.125 21.844 0.125 20.75V4.25C0.125 3.15598 0.559597 2.10677 1.33318 1.33318C2.10677 0.559597 3.15598 0.125 4.25 0.125H20.75ZM7 9.75C6.63533 9.75 6.28559 9.89487 6.02773 10.1527C5.76987 10.4106 5.625 10.7603 5.625 11.125V18C5.625 18.3647 5.76987 18.7144 6.02773 18.9723C6.28559 19.2301 6.63533 19.375 7 19.375C7.36467 19.375 7.71441 19.2301 7.97227 18.9723C8.23013 18.7144 8.375 18.3647 8.375 18V11.125C8.375 10.7603 8.23013 10.4106 7.97227 10.1527C7.71441 9.89487 7.36467 9.75 7 9.75ZM11.125 8.375C10.7603 8.375 10.4106 8.51987 10.1527 8.77773C9.89487 9.03559 9.75 9.38533 9.75 9.75V18C9.75 18.3647 9.89487 18.7144 10.1527 18.9723C10.4106 19.2301 10.7603 19.375 11.125 19.375C11.4897 19.375 11.8394 19.2301 12.0973 18.9723C12.3551 18.7144 12.5 18.3647 12.5 18V12.9675C12.9194 12.4945 13.6275 11.939 14.4154 11.6021C14.8732 11.4069 15.5621 11.3271 16.0406 11.4784C16.1994 11.5186 16.3407 11.6094 16.4435 11.7369C16.515 11.8331 16.625 12.0476 16.625 12.5V18C16.625 18.3647 16.7699 18.7144 17.0277 18.9723C17.2856 19.2301 17.6353 19.375 18 19.375C18.3647 19.375 18.7144 19.2301 18.9723 18.9723C19.2301 18.7144 19.375 18.3647 19.375 18V12.5C19.375 11.5787 19.1413 10.7592 18.6545 10.102C18.2066 9.50601 17.5797 9.069 16.8656 8.85487C15.6254 8.46575 14.2518 8.68162 13.3346 9.07487C13.0408 9.20064 12.7547 9.3439 12.478 9.50387C12.4204 9.18706 12.2534 8.90052 12.0061 8.69422C11.7588 8.48792 11.447 8.37495 11.125 8.375ZM7 5.625C6.63533 5.625 6.28559 5.76987 6.02773 6.02773C5.76987 6.28559 5.625 6.63533 5.625 7C5.625 7.36467 5.76987 7.71441 6.02773 7.97227C6.28559 8.23013 6.63533 8.375 7 8.375C7.36467 8.375 7.71441 8.23013 7.97227 7.97227C8.23013 7.71441 8.375 7.36467 8.375 7C8.375 6.63533 8.23013 6.28559 7.97227 6.02773C7.71441 5.76987 7.36467 5.625 7 5.625Z" fill="#D2D3D5"/>
</svg>
