<svg width="25" height="26" viewBox="0 0 25 26" fill="none" xmlns="http://www.w3.org/2000/svg">
<path d="M12.5 9.60264C11.8869 9.60264 11.2875 9.78445 10.7777 10.1251C10.2679 10.4657 9.8706 10.9499 9.63597 11.5163C9.40134 12.0828 9.33995 12.7061 9.45957 13.3074C9.57918 13.9088 9.87443 14.4611 10.308 14.8947C10.7415 15.3282 11.2939 15.6235 11.8952 15.7431C12.4966 15.8627 13.1199 15.8013 13.6863 15.5667C14.2528 15.332 14.7369 14.9347 15.0776 14.4249C15.4182 13.9151 15.6 13.3158 15.6 12.7026C15.6 12.2955 15.5198 11.8924 15.364 11.5163C15.2082 11.1402 14.9799 10.7985 14.692 10.5106C14.4042 10.2227 14.0624 9.9944 13.6863 9.83861C13.3102 9.68282 12.9071 9.60264 12.5 9.60264ZM24.9125 6.54014C24.9059 5.57483 24.7282 4.61835 24.3875 3.71514C24.1366 3.05421 23.7484 2.454 23.2485 1.95412C22.7486 1.45423 22.1484 1.06603 21.4875 0.815137C20.5843 0.474466 19.6278 0.296713 18.6625 0.290137C17.05 0.202637 16.575 0.202637 12.5 0.202637C8.425 0.202637 7.95 0.202637 6.3375 0.290137C5.3722 0.296713 4.41571 0.474466 3.5125 0.815137C2.85157 1.06603 2.25137 1.45423 1.75148 1.95412C1.2516 2.454 0.863397 3.05421 0.6125 3.71514C0.27183 4.61835 0.0940761 5.57483 0.0874999 6.54014C-8.3819e-08 8.15264 0 8.62764 0 12.7026C0 16.7776 -8.3819e-08 17.2526 0.0874999 18.8651C0.100955 19.8338 0.278468 20.7933 0.6125 21.7026C0.862285 22.3605 1.25016 22.9573 1.75 23.4526C2.24774 23.9555 2.84924 24.3437 3.5125 24.5901C4.41571 24.9308 5.3722 25.1086 6.3375 25.1151C7.95 25.2026 8.425 25.2026 12.5 25.2026C16.575 25.2026 17.05 25.2026 18.6625 25.1151C19.6278 25.1086 20.5843 24.9308 21.4875 24.5901C22.1508 24.3437 22.7523 23.9555 23.25 23.4526C23.7498 22.9573 24.1377 22.3605 24.3875 21.7026C24.7278 20.795 24.9056 19.8345 24.9125 18.8651C25 17.2526 25 16.7776 25 12.7026C25 8.62764 25 8.15264 24.9125 6.54014ZM21.7375 16.5401C21.6974 17.3115 21.5328 18.0713 21.25 18.7901C21.0073 19.3897 20.6466 19.9344 20.1892 20.3918C19.7318 20.8492 19.1871 21.21 18.5875 21.4526C17.8619 21.7196 17.0978 21.8674 16.325 21.8901H8.675C7.90216 21.8674 7.13811 21.7196 6.4125 21.4526C5.79263 21.2223 5.23285 20.8548 4.775 20.3776C4.32208 19.9292 3.97231 19.3875 3.75 18.7901C3.48195 18.0653 3.33826 17.3004 3.325 16.5276V8.87764C3.33826 8.10492 3.48195 7.33999 3.75 6.61514C3.98035 5.99527 4.34784 5.43548 4.825 4.97764C5.27542 4.52717 5.81658 4.17775 6.4125 3.95264C7.13811 3.68564 7.90216 3.5379 8.675 3.51514H16.325C17.0978 3.5379 17.8619 3.68564 18.5875 3.95264C19.2074 4.18299 19.7672 4.55048 20.225 5.02764C20.6779 5.47607 21.0277 6.0178 21.25 6.61514C21.517 7.34075 21.6647 8.1048 21.6875 8.87764V12.7026C21.6875 15.2776 21.775 15.5401 21.7375 16.5276V16.5401ZM19.7375 7.24014C19.5887 6.83637 19.354 6.46969 19.0497 6.1654C18.7454 5.86112 18.3788 5.62647 17.975 5.47764C17.4206 5.28546 16.8367 5.19238 16.25 5.20264H8.75C8.16033 5.2084 7.57634 5.31843 7.025 5.52764C6.62741 5.66971 6.26462 5.89478 5.96073 6.18789C5.65684 6.481 5.41883 6.83543 5.2625 7.22764C5.08097 7.78435 4.99229 8.36713 5 8.95264V16.4526C5.01239 17.0416 5.12221 17.6245 5.325 18.1776C5.47383 18.5814 5.70848 18.9481 6.01277 19.2524C6.31705 19.5567 6.68373 19.7913 7.0875 19.9401C7.62083 20.1363 8.18207 20.246 8.75 20.2651H16.25C16.8397 20.2594 17.4237 20.1493 17.975 19.9401C18.3788 19.7913 18.7454 19.5567 19.0497 19.2524C19.354 18.9481 19.5887 18.5814 19.7375 18.1776C19.9467 17.6263 20.0567 17.0423 20.0625 16.4526V8.95264C20.0629 8.36238 19.9526 7.77729 19.7375 7.22764V7.24014ZM12.5 17.4776C11.8735 17.4776 11.2532 17.354 10.6746 17.1139C10.0959 16.8738 9.57038 16.5219 9.12798 16.0783C8.68557 15.6348 8.33503 15.1083 8.09643 14.529C7.85783 13.9497 7.73586 13.3291 7.7375 12.7026C7.7375 11.7577 8.01787 10.834 8.54311 10.0485C9.06835 9.26298 9.81484 8.65097 10.6881 8.28993C11.5613 7.92889 12.5221 7.83506 13.4487 8.02032C14.3753 8.20558 15.2261 8.6616 15.8934 9.33065C16.5607 9.99969 17.0144 10.8517 17.1973 11.7788C17.3801 12.7058 17.2838 13.6663 16.9204 14.5386C16.5571 15.4109 15.9431 16.1558 15.1562 16.679C14.3694 17.2022 13.4449 17.4801 12.5 17.4776ZM17.5 8.86514C17.2237 8.83589 16.968 8.70541 16.7821 8.49885C16.5963 8.29229 16.4934 8.02425 16.4934 7.74639C16.4934 7.46852 16.5963 7.20049 16.7821 6.99392C16.968 6.78736 17.2237 6.65689 17.5 6.62764C17.7763 6.65689 18.032 6.78736 18.2179 6.99392C18.4037 7.20049 18.5066 7.46852 18.5066 7.74639C18.5066 8.02425 18.4037 8.29229 18.2179 8.49885C18.032 8.70541 17.7763 8.83589 17.5 8.86514Z" fill="#D2D3D5"/>
</svg>
