<svg width="30" height="30" viewBox="0 0 30 30" fill="none" xmlns="http://www.w3.org/2000/svg">
<path d="M6.73803 0.375C6.14965 0.375 5.56803 0.58875 5.08428 0.97125L5.01678 1.00837L4.98078 1.04212L1.46515 4.66463L1.4989 4.69837C0.415529 5.70187 0.0780292 7.20038 0.549404 8.49638C0.551654 8.502 0.547154 8.52337 0.549404 8.53012C1.50228 11.2616 3.94353 16.5289 8.70565 21.2921C13.4869 26.0734 18.8273 28.4134 21.4677 29.4484H21.5014C22.1636 29.6667 22.8711 29.7102 23.555 29.5746C24.239 29.439 24.8763 29.1289 25.4052 28.6744L25.4389 28.6406L25.4749 28.6046L28.9579 25.125C29.8917 24.1912 29.8917 22.578 28.9579 21.6443L24.3882 17.0745L24.3522 17.0036C23.4184 16.0699 21.7703 16.0699 20.8365 17.0036L20.8028 17.0396L18.5865 19.2559C16.8978 18.4445 15.3446 17.377 13.9819 16.0912C12.1414 14.3329 11.1987 12.3112 10.8544 11.5192L13.1022 9.26925C14.0494 8.322 14.064 6.75375 13.0684 5.8245L13.1022 5.7885L12.9975 5.68388L8.49753 1.04212L8.4604 1.00837L8.39065 0.97125C7.92253 0.591495 7.33966 0.381345 6.7369 0.375H6.73803ZM6.73803 2.625C6.82128 2.625 6.9034 2.6655 6.98553 2.73075L11.4855 7.33538L11.5553 7.40625L11.589 7.44C11.5812 7.43437 11.6565 7.54913 11.5193 7.6875L8.70678 10.5L8.17803 10.9928L8.42553 11.6947C8.42553 11.6947 9.71928 15.1519 12.4339 17.7428L12.678 17.9531C15.2925 20.3404 18.375 21.6431 18.375 21.6431L19.0782 21.9604L19.6069 21.4339L22.4194 18.6214C22.6107 18.4301 22.5769 18.4301 22.7682 18.6214L27.375 23.226C27.5663 23.4172 27.5663 23.3497 27.375 23.541L23.9292 26.9869C23.4117 27.4324 22.8638 27.5224 22.2079 27.3041C19.6564 26.3029 14.7042 24.1238 10.2885 19.7104C5.83915 15.2587 3.51378 10.2075 2.66103 7.75837C2.4889 7.3005 2.61265 6.62213 3.01203 6.28125L3.04578 6.2475L3.08178 6.21038L6.49278 2.73075C6.55973 2.66871 6.64586 2.6314 6.7369 2.625H6.73803Z" fill="#FF9A62"/>
</svg>
