<svg width="43" height="47" viewBox="0 0 43 47" fill="none" xmlns="http://www.w3.org/2000/svg">
<path d="M23.1087 1.03038L39.1504 7.04601C40.0242 7.37357 40.7773 7.96005 41.3088 8.72708C41.8404 9.4941 42.1251 10.4051 42.125 11.3383V23.6285C42.1251 27.4589 41.0585 31.2136 39.0448 34.4719C37.0312 37.7302 34.1499 40.3634 30.724 42.0765L23.0377 45.9196C22.5603 46.1584 22.0338 46.2827 21.5 46.2827C20.9662 46.2827 20.4397 46.1584 19.9623 45.9196L12.276 42.0765C8.85009 40.3634 5.96884 37.7302 3.95516 34.4719C1.94147 31.2136 0.874917 27.4589 0.875 23.6285V11.3383C0.874884 10.4051 1.15963 9.4941 1.69118 8.72708C2.22273 7.96005 2.97575 7.37357 3.84958 7.04601L19.8913 1.03038C20.9285 0.641565 22.0715 0.641565 23.1087 1.03038ZM21.5 5.32268L5.45833 11.3383V23.6285C5.45886 26.6074 6.28882 29.5273 7.85522 32.061C9.42163 34.5948 11.6626 36.6424 14.3271 37.9744L21.5 41.5654L28.6729 37.9789C31.3381 36.6466 33.5795 34.5983 35.146 32.0637C36.7124 29.529 37.542 26.6082 37.5417 23.6285V11.3383L21.5 5.32268ZM21.5 14.3335C22.4782 14.3331 23.4309 14.6457 24.2188 15.2256C25.0066 15.8054 25.5882 16.6222 25.8786 17.5563C26.169 18.4905 26.1529 19.493 25.8326 20.4173C25.5124 21.3416 24.9048 22.1393 24.0988 22.6935L23.7917 22.8883V30.3752C23.791 30.9593 23.5674 31.5211 23.1664 31.9458C22.7654 32.3706 22.2174 32.6261 21.6343 32.6604C21.0512 32.6946 20.477 32.5049 20.0291 32.13C19.5812 31.7551 19.2934 31.2233 19.2244 30.6433L19.2083 30.3752V22.8883C18.3335 22.3843 17.6495 21.6056 17.2627 20.673C16.8758 19.7404 16.8077 18.7061 17.069 17.7309C17.3302 16.7556 17.9062 15.8939 18.7075 15.2796C19.5087 14.6653 20.4904 14.3327 21.5 14.3335Z" fill="#FB8A00"/>
</svg>
