<svg width="100" height="100" viewBox="0 0 100 100" fill="none" xmlns="http://www.w3.org/2000/svg">
<rect x="10" y="25" width="80" height="59" fill="white"/>
<path d="M75 12.5C77.7359 12.5 80.4449 13.0389 82.9726 14.0858C85.5002 15.1328 87.7968 16.6674 89.7314 18.6019C91.6659 20.5365 93.2005 22.8331 94.2475 25.3608C95.2944 27.8884 95.8333 30.5975 95.8333 33.3333V66.6667C95.8333 69.4025 95.2944 72.1116 94.2475 74.6392C93.2005 77.1669 91.6659 79.4635 89.7314 81.3981C87.7968 83.3326 85.5002 84.8672 82.9726 85.9142C80.4449 86.9611 77.7359 87.5 75 87.5H25C22.2641 87.5 19.555 86.9611 17.0274 85.9142C14.4998 84.8672 12.2032 83.3326 10.2686 81.3981C6.36159 77.4911 4.16666 72.192 4.16666 66.6667V33.3333C4.16666 27.808 6.36159 22.5089 10.2686 18.6019C14.1756 14.6949 19.4746 12.5 25 12.5H75ZM37.5 37.5V62.5C37.5006 63.2369 37.6966 63.9604 38.0679 64.5968C38.4393 65.2332 38.9729 65.7598 39.6141 66.1228C40.2554 66.4857 40.9814 66.6722 41.7182 66.6631C42.455 66.6539 43.1762 66.4496 43.8083 66.0708L64.6417 53.5708C65.2577 53.2004 65.7674 52.6769 66.1213 52.0512C66.4752 51.4255 66.6612 50.7188 66.6612 50C66.6612 49.2812 66.4752 48.5745 66.1213 47.9488C65.7674 47.3231 65.2577 46.7996 64.6417 46.4292L43.8083 33.9292C43.1762 33.5504 42.455 33.3461 41.7182 33.3369C40.9814 33.3278 40.2554 33.5143 39.6141 33.8772C38.9729 34.2402 38.4393 34.7668 38.0679 35.4032C37.6966 36.0396 37.5006 36.7631 37.5 37.5Z" fill="#FD0808"/>
</svg>
