<svg width="21" height="21" viewBox="0 0 21 21" fill="none" xmlns="http://www.w3.org/2000/svg">
<path d="M9.04159 15.2918L16.3853 7.94808L14.927 6.48975L9.04159 12.3752L6.07284 9.40641L4.6145 10.8647L9.04159 15.2918ZM10.4999 20.9168C9.05895 20.9168 7.70478 20.6432 6.43742 20.096C5.17006 19.5488 4.06763 18.8068 3.13013 17.87C2.19263 16.9325 1.45061 15.83 0.904085 14.5627C0.357558 13.2953 0.0839464 11.9411 0.083252 10.5002C0.083252 9.05919 0.356863 7.70502 0.904085 6.43766C1.45131 5.1703 2.19332 4.06787 3.13013 3.13037C4.06763 2.19287 5.17006 1.45086 6.43742 0.90433C7.70478 0.357802 9.05895 0.0841905 10.4999 0.0834961C11.9409 0.0834961 13.2951 0.357107 14.5624 0.90433C15.8298 1.45155 16.9322 2.19357 17.8697 3.13037C18.8072 4.06787 19.5496 5.1703 20.0968 6.43766C20.644 7.70502 20.9173 9.05919 20.9166 10.5002C20.9166 11.9411 20.643 13.2953 20.0958 14.5627C19.5485 15.83 18.8065 16.9325 17.8697 17.87C16.9322 18.8075 15.8298 19.5498 14.5624 20.097C13.2951 20.6443 11.9409 20.9175 10.4999 20.9168ZM10.4999 18.8335C12.8263 18.8335 14.7968 18.0262 16.4114 16.4116C18.026 14.797 18.8333 12.8266 18.8333 10.5002C18.8333 8.17377 18.026 6.20329 16.4114 4.5887C14.7968 2.97412 12.8263 2.16683 10.4999 2.16683C8.17353 2.16683 6.20304 2.97412 4.58846 4.5887C2.97388 6.20329 2.16659 8.17377 2.16659 10.5002C2.16659 12.8266 2.97388 14.797 4.58846 16.4116C6.20304 18.0262 8.17353 18.8335 10.4999 18.8335Z" fill="#0853FC"/>
</svg>
