<svg width="21" height="21" viewBox="0 0 21 21" fill="none" xmlns="http://www.w3.org/2000/svg">
<path d="M9.04183 15.2916L16.3856 7.94784L14.9272 6.4895L9.04183 12.3749L6.07308 9.40617L4.61475 10.8645L9.04183 15.2916ZM10.5002 20.9166C9.05919 20.9166 7.70502 20.643 6.43766 20.0958C5.1703 19.5485 4.06787 18.8065 3.13037 17.8697C2.19287 16.9322 1.45086 15.8298 0.90433 14.5624C0.357802 13.2951 0.0841905 11.9409 0.0834961 10.4999C0.0834961 9.05895 0.357107 7.70478 0.90433 6.43742C1.45155 5.17006 2.19357 4.06763 3.13037 3.13013C4.06787 2.19263 5.1703 1.45061 6.43766 0.904085C7.70502 0.357558 9.05919 0.0839464 10.5002 0.083252C11.9411 0.083252 13.2953 0.356863 14.5627 0.904085C15.83 1.45131 16.9325 2.19332 17.87 3.13013C18.8075 4.06763 19.5498 5.17006 20.097 6.43742C20.6443 7.70478 20.9175 9.05895 20.9168 10.4999C20.9168 11.9409 20.6432 13.2951 20.096 14.5624C19.5488 15.8298 18.8068 16.9322 17.87 17.8697C16.9325 18.8072 15.83 19.5496 14.5627 20.0968C13.2953 20.644 11.9411 20.9173 10.5002 20.9166ZM10.5002 18.8333C12.8266 18.8333 14.797 18.026 16.4116 16.4114C18.0262 14.7968 18.8335 12.8263 18.8335 10.4999C18.8335 8.17353 18.0262 6.20304 16.4116 4.58846C14.797 2.97388 12.8266 2.16659 10.5002 2.16659C8.17377 2.16659 6.20329 2.97388 4.5887 4.58846C2.97412 6.20304 2.16683 8.17353 2.16683 10.4999C2.16683 12.8263 2.97412 14.7968 4.5887 16.4114C6.20329 18.026 8.17377 18.8333 10.5002 18.8333Z" fill="#FB8A00"/>
</svg>
