<svg xmlns="http://www.w3.org/2000/svg" xmlns:xlink="http://www.w3.org/1999/xlink" width="297mm" height="420mm" viewBox="0 0 297 420">
  <title>Tarjeta de reseñas - E.J. Tamarit Automoción</title>
  <desc>Tarjeta A3 vertical moderna para dejar una reseña en Google Maps.</desc>
  <rect width="297" height="420" fill="#f5f6f7"/>
  <rect x="15" y="15" width="267" height="390" rx="10" fill="#fff"/>
  <path d="M15 15h267v7H15z" fill="#dc2626"/>
  <circle cx="148.5" cy="65" r="24" fill="#dc2626"/>
  <g transform="translate(131.5 56)" fill="none" stroke="#fff" stroke-width="2.3" stroke-linecap="round" stroke-linejoin="round">
    <path d="M0 11h34l-3.5-10H9L0 11Z"/><path d="M0 11v5h5m17 0h7v-5M9 16h13M9 11h.01M31 11h.01"/>
  </g>
  <g font-family="Arial, sans-serif" text-anchor="middle">
    <text x="148.5" y="111" font-size="12" font-weight="700" fill="#202124" letter-spacing=".2">E.J. TAMARIT AUTOMOCIÓN · VALENCIA</text>
    <text x="148.5" y="135" font-size="4.8" fill="#6b7280">C/ dels Sants Just i Pastor, 121 · València · 634 139 604</text>
    <text x="148.5" y="157" font-size="19" font-weight="700" fill="#202124">¿Te atendimos bien?</text>
    <text x="148.5" y="175" font-size="19" font-weight="700" fill="#dc2626">Cuéntalo en Google.</text>
    <text x="148.5" y="191" font-size="6" fill="#6b7280">Tu opinión ayuda a otros conductores.</text>
  </g>
  <rect x="68" y="211" width="161" height="161" rx="7" fill="#fff" stroke="#e1e4e8" stroke-width="1.4"/>
  <image x="84" y="227" width="129" height="129" xlink:href="google-maps-qr.svg"/>
  <g transform="translate(77 368)" fill="none" stroke="#dc2626" stroke-width="2" stroke-linecap="round">
    <path d="M0 9h5M0 9A14 14 0 0 1 14-5M0 9a14 14 0 0 0 14 14"/>
    <path d="M7 9h5M7 9a8 8 0 0 1 8-8M7 9a8 8 0 0 0 8 8"/>
  </g>
  <text x="101" y="375" font-family="Arial, sans-serif" font-size="7.5" font-weight="700" fill="#202124">Escanea o acerca tu móvil</text>
  <text x="101" y="385" font-family="Arial, sans-serif" font-size="5.1" fill="#6b7280">Abre nuestra ficha en Google Maps.</text>
  <text x="252" y="375" text-anchor="end" font-family="Arial, sans-serif" font-size="10" fill="#f4b400" letter-spacing="1.5">★★★★★</text>
  <text x="252" y="385" text-anchor="end" font-family="Arial, sans-serif" font-size="5.1" fill="#6b7280">Gracias por tu confianza</text>
  <path d="M39 397h219" stroke="#e5e7eb"/>
  <text x="148.5" y="402" text-anchor="middle" font-family="Arial, sans-serif" font-size="4.6" fill="#6b7280">tamaritautomocion.es</text>
</svg>
